<mxfile host="app.diagrams.net" modified="2023-09-22T10:19:18.200Z" agent="Mozilla/5.0 (Windows NT 6.1; Win64; x64; rv:109.0) Gecko/20100101 Firefox/115.0" etag="G9RDj3Aq9PnQxbKpRilb" version="21.7.5" type="device">
  <diagram name="Страница — 1" id="HxW6GojPNqiicMQGRBJ_">
    <mxGraphModel dx="1658" dy="839" grid="1" gridSize="10" guides="1" tooltips="1" connect="1" arrows="1" fold="1" page="1" pageScale="1" pageWidth="827" pageHeight="1169" math="0" shadow="0">
      <root>
        <mxCell id="0" />
        <mxCell id="1" parent="0" />
        <mxCell id="lTt8sXJPaiqsI27GvJI6-10" value="" style="group" parent="1" vertex="1" connectable="0">
          <mxGeometry x="60" y="140" width="320" height="650" as="geometry" />
        </mxCell>
        <mxCell id="M0PKwrjYsfH6vsUi4f3_-23" value="" style="rounded=0;whiteSpace=wrap;html=1;" vertex="1" parent="lTt8sXJPaiqsI27GvJI6-10">
          <mxGeometry x="20" y="20" width="300" height="550" as="geometry" />
        </mxCell>
        <mxCell id="lTt8sXJPaiqsI27GvJI6-34" value="" style="group" parent="lTt8sXJPaiqsI27GvJI6-10" vertex="1" connectable="0">
          <mxGeometry x="80" y="110" width="180" height="60" as="geometry" />
        </mxCell>
        <mxCell id="lTt8sXJPaiqsI27GvJI6-11" value="" style="rounded=1;whiteSpace=wrap;html=1;" parent="lTt8sXJPaiqsI27GvJI6-34" vertex="1">
          <mxGeometry y="30" width="180" height="30" as="geometry" />
        </mxCell>
        <mxCell id="lTt8sXJPaiqsI27GvJI6-13" value="Email" style="text;html=1;strokeColor=none;fillColor=none;align=center;verticalAlign=middle;whiteSpace=wrap;rounded=0;fontColor=#808080;" parent="lTt8sXJPaiqsI27GvJI6-34" vertex="1">
          <mxGeometry y="10" width="60" height="20" as="geometry" />
        </mxCell>
        <mxCell id="lTt8sXJPaiqsI27GvJI6-33" value="Enter your email" style="text;html=1;strokeColor=none;fillColor=none;align=center;verticalAlign=middle;whiteSpace=wrap;rounded=0;fontColor=#808080;" parent="lTt8sXJPaiqsI27GvJI6-34" vertex="1">
          <mxGeometry x="10" y="35" width="160" height="20" as="geometry" />
        </mxCell>
        <mxCell id="lTt8sXJPaiqsI27GvJI6-47" value="" style="group" parent="lTt8sXJPaiqsI27GvJI6-10" vertex="1" connectable="0">
          <mxGeometry x="70" y="220" width="180" height="60" as="geometry" />
        </mxCell>
        <mxCell id="lTt8sXJPaiqsI27GvJI6-48" value="" style="rounded=1;whiteSpace=wrap;html=1;" parent="lTt8sXJPaiqsI27GvJI6-47" vertex="1">
          <mxGeometry x="10" y="40" width="180" height="30" as="geometry" />
        </mxCell>
        <mxCell id="lTt8sXJPaiqsI27GvJI6-50" value="Enter your passoword" style="text;html=1;strokeColor=none;fillColor=none;align=center;verticalAlign=middle;whiteSpace=wrap;rounded=0;fontColor=#808080;" parent="lTt8sXJPaiqsI27GvJI6-47" vertex="1">
          <mxGeometry x="20" y="45" width="160" height="20" as="geometry" />
        </mxCell>
        <mxCell id="lTt8sXJPaiqsI27GvJI6-49" value="Password" style="text;html=1;strokeColor=none;fillColor=none;align=center;verticalAlign=middle;whiteSpace=wrap;rounded=0;fontColor=#808080;" parent="lTt8sXJPaiqsI27GvJI6-10" vertex="1">
          <mxGeometry x="92" y="238" width="60" height="20" as="geometry" />
        </mxCell>
        <mxCell id="lTt8sXJPaiqsI27GvJI6-53" value="" style="rounded=1;whiteSpace=wrap;html=1;" parent="lTt8sXJPaiqsI27GvJI6-10" vertex="1">
          <mxGeometry x="113" y="510" width="110" height="30" as="geometry" />
        </mxCell>
        <mxCell id="lTt8sXJPaiqsI27GvJI6-54" value="Submit" style="text;html=1;strokeColor=none;fillColor=none;align=center;verticalAlign=middle;whiteSpace=wrap;rounded=0;fontColor=#808080;" parent="lTt8sXJPaiqsI27GvJI6-10" vertex="1">
          <mxGeometry x="138" y="515" width="60" height="20" as="geometry" />
        </mxCell>
        <mxCell id="M0PKwrjYsfH6vsUi4f3_-2" value="" style="group" vertex="1" connectable="0" parent="lTt8sXJPaiqsI27GvJI6-10">
          <mxGeometry x="80" y="170" width="180" height="60" as="geometry" />
        </mxCell>
        <mxCell id="M0PKwrjYsfH6vsUi4f3_-3" value="" style="rounded=1;whiteSpace=wrap;html=1;" vertex="1" parent="M0PKwrjYsfH6vsUi4f3_-2">
          <mxGeometry y="30" width="180" height="30" as="geometry" />
        </mxCell>
        <mxCell id="M0PKwrjYsfH6vsUi4f3_-4" value="Login" style="text;html=1;strokeColor=none;fillColor=none;align=center;verticalAlign=middle;whiteSpace=wrap;rounded=0;fontColor=#808080;" vertex="1" parent="M0PKwrjYsfH6vsUi4f3_-2">
          <mxGeometry y="10" width="60" height="20" as="geometry" />
        </mxCell>
        <mxCell id="M0PKwrjYsfH6vsUi4f3_-5" value="Enter your login" style="text;html=1;strokeColor=none;fillColor=none;align=center;verticalAlign=middle;whiteSpace=wrap;rounded=0;fontColor=#808080;" vertex="1" parent="M0PKwrjYsfH6vsUi4f3_-2">
          <mxGeometry x="10" y="35" width="160" height="20" as="geometry" />
        </mxCell>
        <mxCell id="M0PKwrjYsfH6vsUi4f3_-9" value="" style="rounded=1;whiteSpace=wrap;html=1;" vertex="1" parent="lTt8sXJPaiqsI27GvJI6-10">
          <mxGeometry x="80" y="322" width="180" height="30" as="geometry" />
        </mxCell>
        <mxCell id="M0PKwrjYsfH6vsUi4f3_-10" value="Enter your passoword" style="text;html=1;strokeColor=none;fillColor=none;align=center;verticalAlign=middle;whiteSpace=wrap;rounded=0;fontColor=#808080;" vertex="1" parent="lTt8sXJPaiqsI27GvJI6-10">
          <mxGeometry x="90" y="327" width="160" height="20" as="geometry" />
        </mxCell>
        <mxCell id="M0PKwrjYsfH6vsUi4f3_-11" value="Confirm password" style="text;html=1;strokeColor=none;fillColor=none;align=center;verticalAlign=middle;whiteSpace=wrap;rounded=0;fontColor=#808080;" vertex="1" parent="lTt8sXJPaiqsI27GvJI6-10">
          <mxGeometry x="86" y="300" width="118" height="20" as="geometry" />
        </mxCell>
        <mxCell id="M0PKwrjYsfH6vsUi4f3_-12" value="" style="rounded=1;whiteSpace=wrap;html=1;" vertex="1" parent="lTt8sXJPaiqsI27GvJI6-10">
          <mxGeometry x="70" y="380" width="200" height="30" as="geometry" />
        </mxCell>
        <mxCell id="M0PKwrjYsfH6vsUi4f3_-13" value="" style="rounded=1;whiteSpace=wrap;html=1;" vertex="1" parent="lTt8sXJPaiqsI27GvJI6-10">
          <mxGeometry x="236" y="380" width="34" height="30" as="geometry" />
        </mxCell>
        <mxCell id="M0PKwrjYsfH6vsUi4f3_-14" value="" style="triangle;whiteSpace=wrap;html=1;rotation=90;fillColor=#4D4D4D;" vertex="1" parent="lTt8sXJPaiqsI27GvJI6-10">
          <mxGeometry x="243" y="380" width="20" height="30" as="geometry" />
        </mxCell>
        <mxCell id="M0PKwrjYsfH6vsUi4f3_-15" value="Control Question" style="text;html=1;strokeColor=none;fillColor=none;align=left;verticalAlign=middle;whiteSpace=wrap;rounded=0;fontColor=#808080;" vertex="1" parent="lTt8sXJPaiqsI27GvJI6-10">
          <mxGeometry x="76" y="385" width="184" height="20" as="geometry" />
        </mxCell>
        <mxCell id="M0PKwrjYsfH6vsUi4f3_-16" value="" style="rounded=1;whiteSpace=wrap;html=1;" vertex="1" parent="lTt8sXJPaiqsI27GvJI6-10">
          <mxGeometry x="80" y="441" width="180" height="30" as="geometry" />
        </mxCell>
        <mxCell id="M0PKwrjYsfH6vsUi4f3_-17" value="Enter your answer" style="text;html=1;strokeColor=none;fillColor=none;align=center;verticalAlign=middle;whiteSpace=wrap;rounded=0;fontColor=#808080;" vertex="1" parent="lTt8sXJPaiqsI27GvJI6-10">
          <mxGeometry x="90" y="446" width="160" height="20" as="geometry" />
        </mxCell>
        <mxCell id="M0PKwrjYsfH6vsUi4f3_-18" value="Secret word" style="text;html=1;strokeColor=none;fillColor=none;align=center;verticalAlign=middle;whiteSpace=wrap;rounded=0;fontColor=#808080;" vertex="1" parent="lTt8sXJPaiqsI27GvJI6-10">
          <mxGeometry x="71" y="419" width="118" height="20" as="geometry" />
        </mxCell>
        <mxCell id="M0PKwrjYsfH6vsUi4f3_-19" value="Registration" style="text;html=1;strokeColor=none;fillColor=none;align=left;verticalAlign=middle;whiteSpace=wrap;rounded=0;fontColor=#808080;fontSize=20;" vertex="1" parent="lTt8sXJPaiqsI27GvJI6-10">
          <mxGeometry x="111" y="83" width="122" height="20" as="geometry" />
        </mxCell>
        <mxCell id="M0PKwrjYsfH6vsUi4f3_-20" value="&lt;font style=&quot;font-size: 24px;&quot;&gt;&lt;b&gt;RoboChist&lt;/b&gt;&lt;/font&gt;" style="text;html=1;strokeColor=none;fillColor=none;align=left;verticalAlign=middle;whiteSpace=wrap;rounded=0;fontColor=#808080;fontSize=20;" vertex="1" parent="lTt8sXJPaiqsI27GvJI6-10">
          <mxGeometry x="111" y="40" width="112" height="20" as="geometry" />
        </mxCell>
        <mxCell id="M0PKwrjYsfH6vsUi4f3_-24" value="" style="rounded=0;whiteSpace=wrap;html=1;" vertex="1" parent="1">
          <mxGeometry x="440" y="160" width="300" height="550" as="geometry" />
        </mxCell>
        <mxCell id="M0PKwrjYsfH6vsUi4f3_-25" value="" style="group" vertex="1" connectable="0" parent="1">
          <mxGeometry x="500" y="250" width="180" height="60" as="geometry" />
        </mxCell>
        <mxCell id="M0PKwrjYsfH6vsUi4f3_-26" value="" style="rounded=1;whiteSpace=wrap;html=1;" vertex="1" parent="M0PKwrjYsfH6vsUi4f3_-25">
          <mxGeometry y="30" width="180" height="30" as="geometry" />
        </mxCell>
        <mxCell id="M0PKwrjYsfH6vsUi4f3_-27" value="Login" style="text;html=1;strokeColor=none;fillColor=none;align=center;verticalAlign=middle;whiteSpace=wrap;rounded=0;fontColor=#808080;" vertex="1" parent="M0PKwrjYsfH6vsUi4f3_-25">
          <mxGeometry y="10" width="60" height="20" as="geometry" />
        </mxCell>
        <mxCell id="M0PKwrjYsfH6vsUi4f3_-28" value="Enter your login" style="text;html=1;strokeColor=none;fillColor=none;align=center;verticalAlign=middle;whiteSpace=wrap;rounded=0;fontColor=#808080;" vertex="1" parent="M0PKwrjYsfH6vsUi4f3_-25">
          <mxGeometry x="10" y="35" width="160" height="20" as="geometry" />
        </mxCell>
        <mxCell id="M0PKwrjYsfH6vsUi4f3_-29" value="Sign In" style="text;html=1;strokeColor=none;fillColor=none;align=left;verticalAlign=middle;whiteSpace=wrap;rounded=0;fontColor=#808080;fontSize=20;" vertex="1" parent="1">
          <mxGeometry x="551" y="223" width="82" height="20" as="geometry" />
        </mxCell>
        <mxCell id="M0PKwrjYsfH6vsUi4f3_-30" value="&lt;font style=&quot;font-size: 24px;&quot;&gt;&lt;b&gt;RoboChist&lt;/b&gt;&lt;/font&gt;" style="text;html=1;strokeColor=none;fillColor=none;align=left;verticalAlign=middle;whiteSpace=wrap;rounded=0;fontColor=#808080;fontSize=20;" vertex="1" parent="1">
          <mxGeometry x="531" y="180" width="112" height="20" as="geometry" />
        </mxCell>
        <mxCell id="M0PKwrjYsfH6vsUi4f3_-6" value="" style="rounded=1;whiteSpace=wrap;html=1;" vertex="1" parent="1">
          <mxGeometry x="500" y="340" width="180" height="30" as="geometry" />
        </mxCell>
        <mxCell id="M0PKwrjYsfH6vsUi4f3_-7" value="Enter your passoword" style="text;html=1;strokeColor=none;fillColor=none;align=center;verticalAlign=middle;whiteSpace=wrap;rounded=0;fontColor=#808080;" vertex="1" parent="1">
          <mxGeometry x="510" y="345" width="160" height="20" as="geometry" />
        </mxCell>
        <mxCell id="M0PKwrjYsfH6vsUi4f3_-8" value="&lt;span class=&quot;sourceSample&quot;&gt;Forgot you password?&lt;/span&gt;&lt;span class=&quot;samTranslation&quot;&gt;&lt;/span&gt;" style="text;html=1;strokeColor=none;fillColor=none;align=center;verticalAlign=middle;whiteSpace=wrap;rounded=0;fontColor=#808080;fontStyle=4" vertex="1" parent="1">
          <mxGeometry x="550" y="380" width="130" height="20" as="geometry" />
        </mxCell>
        <mxCell id="M0PKwrjYsfH6vsUi4f3_-31" value="" style="rounded=1;whiteSpace=wrap;html=1;" vertex="1" parent="1">
          <mxGeometry x="530" y="462" width="110" height="30" as="geometry" />
        </mxCell>
        <mxCell id="M0PKwrjYsfH6vsUi4f3_-32" value="Login" style="text;html=1;strokeColor=none;fillColor=none;align=center;verticalAlign=middle;whiteSpace=wrap;rounded=0;fontColor=#808080;" vertex="1" parent="1">
          <mxGeometry x="555" y="467" width="60" height="20" as="geometry" />
        </mxCell>
        <mxCell id="M0PKwrjYsfH6vsUi4f3_-33" value="" style="rounded=0;whiteSpace=wrap;html=1;" vertex="1" parent="1">
          <mxGeometry x="802" y="160" width="300" height="550" as="geometry" />
        </mxCell>
        <mxCell id="M0PKwrjYsfH6vsUi4f3_-34" value="Cleaning" style="text;html=1;strokeColor=none;fillColor=none;align=left;verticalAlign=middle;whiteSpace=wrap;rounded=0;fontColor=#808080;fontSize=20;" vertex="1" parent="1">
          <mxGeometry x="911" y="223" width="82" height="20" as="geometry" />
        </mxCell>
        <mxCell id="M0PKwrjYsfH6vsUi4f3_-35" value="&lt;font style=&quot;font-size: 24px;&quot;&gt;&lt;b&gt;RoboChist&lt;/b&gt;&lt;/font&gt;" style="text;html=1;strokeColor=none;fillColor=none;align=left;verticalAlign=middle;whiteSpace=wrap;rounded=0;fontColor=#808080;fontSize=20;" vertex="1" parent="1">
          <mxGeometry x="891" y="180" width="112" height="20" as="geometry" />
        </mxCell>
        <mxCell id="M0PKwrjYsfH6vsUi4f3_-63" value="" style="rounded=1;whiteSpace=wrap;html=1;" vertex="1" parent="1">
          <mxGeometry x="852" y="280" width="200" height="30" as="geometry" />
        </mxCell>
        <mxCell id="M0PKwrjYsfH6vsUi4f3_-64" value="" style="rounded=1;whiteSpace=wrap;html=1;" vertex="1" parent="1">
          <mxGeometry x="1018" y="280" width="34" height="30" as="geometry" />
        </mxCell>
        <mxCell id="M0PKwrjYsfH6vsUi4f3_-65" value="" style="triangle;whiteSpace=wrap;html=1;rotation=90;fillColor=#4D4D4D;" vertex="1" parent="1">
          <mxGeometry x="1025" y="280" width="20" height="30" as="geometry" />
        </mxCell>
        <mxCell id="M0PKwrjYsfH6vsUi4f3_-66" value="Select Robot" style="text;html=1;strokeColor=none;fillColor=none;align=left;verticalAlign=middle;whiteSpace=wrap;rounded=0;fontColor=#808080;" vertex="1" parent="1">
          <mxGeometry x="858" y="285" width="184" height="20" as="geometry" />
        </mxCell>
        <mxCell id="M0PKwrjYsfH6vsUi4f3_-67" value="Password" style="text;html=1;strokeColor=none;fillColor=none;align=center;verticalAlign=middle;whiteSpace=wrap;rounded=0;fontColor=#808080;" vertex="1" parent="1">
          <mxGeometry x="510" y="320" width="60" height="20" as="geometry" />
        </mxCell>
        <mxCell id="M0PKwrjYsfH6vsUi4f3_-68" value="" style="rounded=1;whiteSpace=wrap;html=1;" vertex="1" parent="1">
          <mxGeometry x="849.5" y="375" width="200" height="30" as="geometry" />
        </mxCell>
        <mxCell id="M0PKwrjYsfH6vsUi4f3_-69" value="" style="rounded=1;whiteSpace=wrap;html=1;" vertex="1" parent="1">
          <mxGeometry x="1015.5" y="375" width="34" height="30" as="geometry" />
        </mxCell>
        <mxCell id="M0PKwrjYsfH6vsUi4f3_-70" value="" style="triangle;whiteSpace=wrap;html=1;rotation=90;fillColor=#4D4D4D;" vertex="1" parent="1">
          <mxGeometry x="1022.5" y="375" width="20" height="30" as="geometry" />
        </mxCell>
        <mxCell id="M0PKwrjYsfH6vsUi4f3_-71" value="Select Programm Cleaning" style="text;html=1;strokeColor=none;fillColor=none;align=left;verticalAlign=middle;whiteSpace=wrap;rounded=0;fontColor=#808080;" vertex="1" parent="1">
          <mxGeometry x="855.5" y="380" width="184" height="20" as="geometry" />
        </mxCell>
        <mxCell id="M0PKwrjYsfH6vsUi4f3_-76" value="" style="rounded=1;whiteSpace=wrap;html=1;" vertex="1" parent="1">
          <mxGeometry x="849.5" y="435" width="200" height="30" as="geometry" />
        </mxCell>
        <mxCell id="M0PKwrjYsfH6vsUi4f3_-77" value="" style="rounded=1;whiteSpace=wrap;html=1;" vertex="1" parent="1">
          <mxGeometry x="1015.5" y="435" width="34" height="30" as="geometry" />
        </mxCell>
        <mxCell id="M0PKwrjYsfH6vsUi4f3_-78" value="" style="triangle;whiteSpace=wrap;html=1;rotation=90;fillColor=#4D4D4D;" vertex="1" parent="1">
          <mxGeometry x="1022.5" y="435" width="20" height="30" as="geometry" />
        </mxCell>
        <mxCell id="M0PKwrjYsfH6vsUi4f3_-79" value="Select Room" style="text;html=1;strokeColor=none;fillColor=none;align=left;verticalAlign=middle;whiteSpace=wrap;rounded=0;fontColor=#808080;" vertex="1" parent="1">
          <mxGeometry x="855.5" y="440" width="184" height="20" as="geometry" />
        </mxCell>
        <mxCell id="M0PKwrjYsfH6vsUi4f3_-80" value="" style="rounded=1;whiteSpace=wrap;html=1;" vertex="1" parent="1">
          <mxGeometry x="849.5" y="539" width="92" height="30" as="geometry" />
        </mxCell>
        <mxCell id="M0PKwrjYsfH6vsUi4f3_-81" value="" style="rounded=1;whiteSpace=wrap;html=1;" vertex="1" parent="1">
          <mxGeometry x="907.5" y="539" width="34" height="30" as="geometry" />
        </mxCell>
        <mxCell id="M0PKwrjYsfH6vsUi4f3_-82" value="" style="triangle;whiteSpace=wrap;html=1;rotation=90;fillColor=#4D4D4D;" vertex="1" parent="1">
          <mxGeometry x="914.5" y="539" width="20" height="30" as="geometry" />
        </mxCell>
        <mxCell id="M0PKwrjYsfH6vsUi4f3_-83" value="Date" style="text;html=1;strokeColor=none;fillColor=none;align=left;verticalAlign=middle;whiteSpace=wrap;rounded=0;fontColor=#808080;" vertex="1" parent="1">
          <mxGeometry x="860.5" y="544" width="42" height="20" as="geometry" />
        </mxCell>
        <mxCell id="M0PKwrjYsfH6vsUi4f3_-84" value="" style="rounded=1;whiteSpace=wrap;html=1;" vertex="1" parent="1">
          <mxGeometry x="958.5" y="539" width="92" height="30" as="geometry" />
        </mxCell>
        <mxCell id="M0PKwrjYsfH6vsUi4f3_-85" value="" style="rounded=1;whiteSpace=wrap;html=1;" vertex="1" parent="1">
          <mxGeometry x="1016.5" y="539" width="34" height="30" as="geometry" />
        </mxCell>
        <mxCell id="M0PKwrjYsfH6vsUi4f3_-86" value="" style="triangle;whiteSpace=wrap;html=1;rotation=90;fillColor=#4D4D4D;" vertex="1" parent="1">
          <mxGeometry x="1023.5" y="539" width="20" height="30" as="geometry" />
        </mxCell>
        <mxCell id="M0PKwrjYsfH6vsUi4f3_-87" value="Time" style="text;html=1;strokeColor=none;fillColor=none;align=left;verticalAlign=middle;whiteSpace=wrap;rounded=0;fontColor=#808080;" vertex="1" parent="1">
          <mxGeometry x="969.5" y="544" width="42" height="20" as="geometry" />
        </mxCell>
        <mxCell id="M0PKwrjYsfH6vsUi4f3_-88" value="Area selection" style="text;html=1;strokeColor=none;fillColor=none;align=center;verticalAlign=middle;whiteSpace=wrap;rounded=0;fontColor=#808080;" vertex="1" parent="1">
          <mxGeometry x="849.5" y="415" width="118" height="20" as="geometry" />
        </mxCell>
        <mxCell id="M0PKwrjYsfH6vsUi4f3_-89" value="Robot selection" style="text;html=1;strokeColor=none;fillColor=none;align=center;verticalAlign=middle;whiteSpace=wrap;rounded=0;fontColor=#808080;" vertex="1" parent="1">
          <mxGeometry x="852" y="260" width="118" height="20" as="geometry" />
        </mxCell>
        <mxCell id="M0PKwrjYsfH6vsUi4f3_-90" value="Program selection" style="text;html=1;strokeColor=none;fillColor=none;align=center;verticalAlign=middle;whiteSpace=wrap;rounded=0;fontColor=#808080;" vertex="1" parent="1">
          <mxGeometry x="849.5" y="355" width="118" height="20" as="geometry" />
        </mxCell>
        <mxCell id="M0PKwrjYsfH6vsUi4f3_-91" value="Shedule selection" style="text;html=1;strokeColor=none;fillColor=none;align=center;verticalAlign=middle;whiteSpace=wrap;rounded=0;fontColor=#808080;" vertex="1" parent="1">
          <mxGeometry x="855.5" y="519" width="118" height="20" as="geometry" />
        </mxCell>
        <mxCell id="M0PKwrjYsfH6vsUi4f3_-93" value="" style="rounded=1;whiteSpace=wrap;html=1;" vertex="1" parent="1">
          <mxGeometry x="980" y="475" width="67.5" height="30" as="geometry" />
        </mxCell>
        <mxCell id="M0PKwrjYsfH6vsUi4f3_-94" value="Start now" style="text;html=1;strokeColor=none;fillColor=none;align=center;verticalAlign=middle;whiteSpace=wrap;rounded=0;fontColor=#808080;" vertex="1" parent="1">
          <mxGeometry x="983.5" y="480" width="60" height="20" as="geometry" />
        </mxCell>
        <mxCell id="M0PKwrjYsfH6vsUi4f3_-95" value="" style="rounded=1;whiteSpace=wrap;html=1;" vertex="1" parent="1">
          <mxGeometry x="951" y="320" width="40" height="30" as="geometry" />
        </mxCell>
        <mxCell id="M0PKwrjYsfH6vsUi4f3_-96" value="Add" style="text;html=1;strokeColor=none;fillColor=none;align=center;verticalAlign=middle;whiteSpace=wrap;rounded=0;fontColor=#808080;" vertex="1" parent="1">
          <mxGeometry x="951" y="322" width="37" height="25" as="geometry" />
        </mxCell>
        <mxCell id="M0PKwrjYsfH6vsUi4f3_-97" value="" style="rounded=1;whiteSpace=wrap;html=1;" vertex="1" parent="1">
          <mxGeometry x="1012" y="320" width="40" height="30" as="geometry" />
        </mxCell>
        <mxCell id="M0PKwrjYsfH6vsUi4f3_-98" value="Del" style="text;html=1;strokeColor=none;fillColor=none;align=center;verticalAlign=middle;whiteSpace=wrap;rounded=0;fontColor=#808080;" vertex="1" parent="1">
          <mxGeometry x="1012" y="322" width="37" height="25" as="geometry" />
        </mxCell>
        <mxCell id="M0PKwrjYsfH6vsUi4f3_-99" value="" style="rounded=1;whiteSpace=wrap;html=1;" vertex="1" parent="1">
          <mxGeometry x="841" y="600" width="89" height="60" as="geometry" />
        </mxCell>
        <mxCell id="M0PKwrjYsfH6vsUi4f3_-100" value="&lt;font style=&quot;font-size: 36px;&quot;&gt;OK&lt;/font&gt;" style="text;html=1;strokeColor=none;fillColor=none;align=center;verticalAlign=middle;whiteSpace=wrap;rounded=0;fontColor=#808080;" vertex="1" parent="1">
          <mxGeometry x="855.5" y="620" width="60" height="20" as="geometry" />
        </mxCell>
        <mxCell id="M0PKwrjYsfH6vsUi4f3_-101" value="" style="rounded=1;whiteSpace=wrap;html=1;" vertex="1" parent="1">
          <mxGeometry x="958.5" y="600" width="110" height="60" as="geometry" />
        </mxCell>
        <mxCell id="M0PKwrjYsfH6vsUi4f3_-102" value="Statistic for selected Robot" style="text;html=1;strokeColor=none;fillColor=none;align=center;verticalAlign=middle;whiteSpace=wrap;rounded=0;fontColor=#808080;" vertex="1" parent="1">
          <mxGeometry x="983.5" y="605" width="66.5" height="45" as="geometry" />
        </mxCell>
        <mxCell id="M0PKwrjYsfH6vsUi4f3_-103" value="" style="rounded=0;whiteSpace=wrap;html=1;" vertex="1" parent="1">
          <mxGeometry x="1160" y="160" width="300" height="550" as="geometry" />
        </mxCell>
        <mxCell id="M0PKwrjYsfH6vsUi4f3_-104" value="Statistic" style="text;html=1;strokeColor=none;fillColor=none;align=left;verticalAlign=middle;whiteSpace=wrap;rounded=0;fontColor=#808080;fontSize=20;" vertex="1" parent="1">
          <mxGeometry x="1271.5" y="223" width="82" height="20" as="geometry" />
        </mxCell>
        <mxCell id="M0PKwrjYsfH6vsUi4f3_-105" value="&lt;font style=&quot;font-size: 24px;&quot;&gt;&lt;b&gt;RoboChist&lt;/b&gt;&lt;/font&gt;" style="text;html=1;strokeColor=none;fillColor=none;align=left;verticalAlign=middle;whiteSpace=wrap;rounded=0;fontColor=#808080;fontSize=20;" vertex="1" parent="1">
          <mxGeometry x="1251.5" y="180" width="112" height="20" as="geometry" />
        </mxCell>
        <mxCell id="M0PKwrjYsfH6vsUi4f3_-92" value="&lt;font style=&quot;font-size: 18px;&quot;&gt;Robot: iRobot&lt;br&gt;&lt;/font&gt;" style="text;html=1;strokeColor=none;fillColor=none;align=center;verticalAlign=middle;whiteSpace=wrap;rounded=0;fontColor=#808080;" vertex="1" parent="1">
          <mxGeometry x="1157" y="280" width="160" height="20" as="geometry" />
        </mxCell>
        <mxCell id="M0PKwrjYsfH6vsUi4f3_-107" value="&lt;font style=&quot;font-size: 18px;&quot;&gt;Battery: 75%&lt;br&gt;&lt;/font&gt;" style="text;html=1;strokeColor=none;fillColor=none;align=center;verticalAlign=middle;whiteSpace=wrap;rounded=0;fontColor=#808080;" vertex="1" parent="1">
          <mxGeometry x="1155" y="420" width="160" height="20" as="geometry" />
        </mxCell>
        <mxCell id="M0PKwrjYsfH6vsUi4f3_-108" value="&lt;font style=&quot;font-size: 18px;&quot;&gt;Fabric number: 112XM45-567&lt;/font&gt;" style="text;html=1;strokeColor=none;fillColor=none;align=center;verticalAlign=middle;whiteSpace=wrap;rounded=0;fontColor=#808080;" vertex="1" parent="1">
          <mxGeometry x="1170" y="351" width="260" height="20" as="geometry" />
        </mxCell>
        <mxCell id="M0PKwrjYsfH6vsUi4f3_-109" value="&lt;font style=&quot;font-size: 18px;&quot;&gt;Model: i8&lt;/font&gt;" style="text;html=1;strokeColor=none;fillColor=none;align=center;verticalAlign=middle;whiteSpace=wrap;rounded=0;fontColor=#808080;" vertex="1" parent="1">
          <mxGeometry x="1163" y="315" width="110" height="20" as="geometry" />
        </mxCell>
        <mxCell id="M0PKwrjYsfH6vsUi4f3_-110" value="&lt;font style=&quot;font-size: 18px;&quot;&gt;Soft version: 3.1.1&lt;br&gt;&lt;/font&gt;" style="text;html=1;strokeColor=none;fillColor=none;align=center;verticalAlign=middle;whiteSpace=wrap;rounded=0;fontColor=#808080;" vertex="1" parent="1">
          <mxGeometry x="1175" y="385" width="160" height="20" as="geometry" />
        </mxCell>
        <mxCell id="M0PKwrjYsfH6vsUi4f3_-111" value="&lt;font style=&quot;font-size: 18px;&quot;&gt;Resourses: 11 hours&lt;br&gt;&lt;/font&gt;" style="text;html=1;strokeColor=none;fillColor=none;align=center;verticalAlign=middle;whiteSpace=wrap;rounded=0;fontColor=#808080;" vertex="1" parent="1">
          <mxGeometry x="1178" y="455" width="182" height="20" as="geometry" />
        </mxCell>
        <mxCell id="M0PKwrjYsfH6vsUi4f3_-117" value="" style="rounded=1;whiteSpace=wrap;html=1;" vertex="1" parent="1">
          <mxGeometry x="1350" y="380" width="40" height="30" as="geometry" />
        </mxCell>
        <mxCell id="M0PKwrjYsfH6vsUi4f3_-118" value="Update" style="text;html=1;strokeColor=none;fillColor=none;align=center;verticalAlign=middle;whiteSpace=wrap;rounded=0;fontColor=#808080;" vertex="1" parent="1">
          <mxGeometry x="1350" y="382" width="40" height="25" as="geometry" />
        </mxCell>
        <mxCell id="M0PKwrjYsfH6vsUi4f3_-119" value="" style="rounded=1;whiteSpace=wrap;html=1;" vertex="1" parent="1">
          <mxGeometry x="1255" y="555" width="110" height="30" as="geometry" />
        </mxCell>
        <mxCell id="M0PKwrjYsfH6vsUi4f3_-120" value="Back" style="text;html=1;strokeColor=none;fillColor=none;align=center;verticalAlign=middle;whiteSpace=wrap;rounded=0;fontColor=#808080;" vertex="1" parent="1">
          <mxGeometry x="1280" y="560" width="60" height="20" as="geometry" />
        </mxCell>
        <mxCell id="M0PKwrjYsfH6vsUi4f3_-121" value="" style="rounded=1;whiteSpace=wrap;html=1;" vertex="1" parent="1">
          <mxGeometry x="849.5" y="475" width="40" height="30" as="geometry" />
        </mxCell>
        <mxCell id="M0PKwrjYsfH6vsUi4f3_-122" value="Add" style="text;html=1;strokeColor=none;fillColor=none;align=center;verticalAlign=middle;whiteSpace=wrap;rounded=0;fontColor=#808080;" vertex="1" parent="1">
          <mxGeometry x="849.5" y="477" width="37" height="25" as="geometry" />
        </mxCell>
        <mxCell id="M0PKwrjYsfH6vsUi4f3_-123" value="" style="rounded=1;whiteSpace=wrap;html=1;" vertex="1" parent="1">
          <mxGeometry x="910.5" y="475" width="40" height="30" as="geometry" />
        </mxCell>
        <mxCell id="M0PKwrjYsfH6vsUi4f3_-124" value="Del" style="text;html=1;strokeColor=none;fillColor=none;align=center;verticalAlign=middle;whiteSpace=wrap;rounded=0;fontColor=#808080;" vertex="1" parent="1">
          <mxGeometry x="910.5" y="477" width="37" height="25" as="geometry" />
        </mxCell>
      </root>
    </mxGraphModel>
  </diagram>
</mxfile>
